<?xml version="1.0" encoding="UTF-8"?>
<!DOCTYPE svg PUBLIC "-//W3C//DTD SVG 1.1//EN" "http://www.w3.org/Graphics/SVG/1.1/DTD/svg11.dtd">
<!-- Creator: CorelDRAW 2018 (64 Bit) -->
<svg xmlns="http://www.w3.org/2000/svg" xml:space="preserve" width="359.664mm" height="68.6228mm" version="1.1" style="shape-rendering:geometricPrecision; text-rendering:geometricPrecision; image-rendering:optimizeQuality; fill-rule:evenodd; clip-rule:evenodd"
viewBox="0 0 40550.04 7736.82"
 xmlns:xlink="http://www.w3.org/1999/xlink">
 <defs>
  <style type="text/css">
   <![CDATA[
    .fil0 {fill:#03004F;fill-rule:nonzero}
   ]]>
  </style>
 </defs>
 <g id="Capa_x0020_1">
  <metadata id="CorelCorpID_0Corel-Layer"/>
  <path class="fil0" d="M22824.17 5351.98l34.04 2.84 42.56 2.83 51.06 2.84 56.74 5.67 59.57 5.68 51.07 2.83 48.22 0 45.4 0 119.16 0 107.79 -5.67 99.31 -5.67 85.11 -11.35 70.93 -14.18 68.09 -19.85 62.42 -22.71 59.59 -25.53 73.76 -39.72 65.26 -42.55 56.73 -42.56 51.06 -48.23 42.56 -53.9 42.56 -59.57 36.88 -68.1 36.88 -76.6 28.38 -65.25 25.53 -68.1 22.7 -70.93 17.02 -73.76 14.18 -76.6 8.51 -82.28 5.68 -85.11 2.83 -87.95 0 -73.76 -5.67 -73.77 -8.51 -76.6 -14.18 -79.44 -14.18 -76.6 -19.87 -76.6 -25.53 -73.77 -31.22 -70.92 -34.04 -68.1 -39.72 -59.57 -45.39 -53.9 -48.23 -48.23 -42.56 -34.05 -45.39 -28.37 -42.55 -28.37 -45.4 -22.7 -45.39 -22.71 -45.39 -17.01 -48.23 -14.18 -45.39 -11.35 -51.06 -8.51 -51.07 -5.67 -56.73 -8.51 -59.59 -2.83 -62.4 -5.68 -65.26 -2.83 -70.93 -2.84 -73.77 0 -48.22 0 -56.74 2.84 -62.42 2.83 -65.26 2.84 -65.25 2.84 -56.74 2.83 -48.23 2.83 -42.55 2.85 -5.68 124.82 -2.83 119.16 -5.68 107.81 -2.83 96.45 -2.84 87.96 0 79.43 -2.84 68.1 0 59.57 0 990.13 14.19 417.04zm-56.74 153.2l-53.9 0 -62.42 2.84 -70.93 2.84 -85.11 5.67 17.02 -354.63 8.51 -1679.54 -8.51 -439.74 90.78 0 723.45 0 167.38 0 141.87 2.83 130.5 5.67 116.31 14.19 107.82 19.85 51.06 11.35 51.07 17.01 48.22 17.02 48.23 22.7 48.23 25.54 45.4 28.37 45.39 31.22 42.55 34.04 48.23 42.56 45.39 45.39 39.72 45.39 39.72 48.23 34.05 51.06 31.2 51.07 31.21 56.73 25.54 56.74 22.7 59.59 17.02 59.57 17.02 62.42 14.18 62.42 11.34 65.26 5.68 65.25 5.67 65.26 0 68.09 0 87.95 -5.67 82.27 -8.51 79.44 -11.35 76.6 -14.18 73.77 -19.85 68.09 -19.85 68.09 -25.54 62.42 -36.89 68.09 -36.88 68.1 -39.72 62.42 -42.55 59.57 -45.4 56.73 -48.22 51.07 -48.23 51.06 -53.9 45.39 -73.77 59.59 -76.6 51.06 -82.27 42.56 -85.12 34.05 -85.11 25.53 -87.94 22.71 -85.11 14.17 -85.12 8.51 -90.78 8.51 -102.13 2.84 -113.48 2.84 -121.99 0 -445.42 -5.68z"/>
  <path class="fil0" d="M27076.89 2997.24l1024.18 2391.62 62.42 127.67 -56.73 -2.84 -48.23 -5.67 -42.56 0 -31.21 -2.84 -65.26 2.84 -53.9 0 -45.39 5.67 -36.88 2.84 -31.21 -107.81 -164.55 -428.39 -175.89 -428.39 -434.08 -11.34 -487.97 11.34 -31.21 82.27 -31.21 79.44 -31.21 79.44 -28.37 73.76 -25.54 70.94 -25.54 68.09 -25.54 65.25 -22.68 62.42 -22.71 56.74 -19.85 56.73 -17.02 53.91 -19.87 48.22 -14.18 45.4 -14.18 45.39 -14.18 39.72 -11.35 36.88 -22.68 -2.84 -28.38 -5.67 -34.05 0 -39.71 -2.84 -25.54 2.84 -31.21 0 -36.88 5.67 -42.56 2.84 1131.99 -2519.29 70.92 0zm278.04 1401.49l-400.03 -927.7 -394.35 927.7 434.07 0 360.31 0zm1455.4 -1390.15l490.81 956.08 133.34 249.66 139.01 249.66 280.87 487.97 42.56 -76.6 42.55 -73.76 36.88 -68.09 34.05 -59.59 65.26 -116.32 62.42 -119.15 473.79 -876.65 8.51 -17.02 11.34 -19.85 14.19 -25.54 17.01 -28.37 19.87 -34.05 19.85 -36.88 22.7 -39.72 25.54 -45.39 51.06 -90.79 45.39 -79.43 42.56 -73.77 34.05 -62.42 42.55 0 175.89 1571.72 14.19 119.16 14.18 121.99 17.01 130.5 17.02 133.35 8.51 65.25 8.51 65.26 8.51 59.57 8.51 53.9 5.67 53.9 5.68 48.23 5.67 45.39 5.67 39.72 -48.23 -2.84 -39.71 -5.67 -36.88 0 -31.22 -2.84 -59.57 2.84 -48.23 0 -42.56 5.67 -31.2 2.84 -113.49 -1316.39 -68.09 -536.2 -507.83 930.55 -192.92 374.49 -22.7 48.23 -25.54 51.07 -31.21 62.42 -31.21 68.09 -139.01 292.21 -39.72 0 -198.6 -408.53 -42.55 -93.62 -51.07 -99.29 -51.06 -104.98 -56.73 -113.48 -122 -232.64 -124.83 -238.32 -65.25 -124.83 -68.1 -130.5 -70.92 -136.18 -73.77 -144.68 -158.88 1412.85 -17.01 363.14 0 76.6 -14.19 0 -14.18 0 -17.02 0 -22.7 -2.84 -39.72 0 -34.05 -2.83 -34.04 0 -31.21 2.83 -25.54 2.84 -22.7 0 0 -34.04 124.83 -743.31 175.9 -1313.56 5.67 -36.88 5.67 -42.55 5.67 -48.23 5.68 -51.06 8.51 -53.9 5.67 -59.59 5.67 -62.42 8.51 -62.42 62.42 0zm3293.81 842.61l-2.84 107.81 0 104.96 -2.83 93.62 0 87.95 -2.84 82.28 0 73.76 0 68.09 0 59.59 0 19.85 0 25.54 0 31.21 2.84 34.05 0 34.04 0 31.21 2.83 22.7 0 19.87 34.05 768.84 -53.9 -2.84 -48.23 -5.67 -39.72 0 -34.04 -2.84 -34.05 2.84 -42.55 0 -51.07 5.67 -59.57 2.84 34.04 -777.35 2.84 -34.05 2.84 -36.88 0 -48.23 0 -53.9 2.83 -53.9 0 -48.23 0 -39.72 2.84 -31.2 0 -303.58 0 -266.69 -17.02 -768.84 36.89 2.84 31.2 2.83 25.54 2.84 22.7 2.84 19.85 2.83 14.19 0 8.51 2.84 5.67 0 56.74 -2.84 48.23 -2.83 39.71 -8.51 31.21 -8.51 -36.88 802.89zm1611.44 -853.95l1024.18 2391.62 62.42 127.67 -56.74 -2.84 -48.23 -5.67 -42.55 0 -31.22 -2.84 -65.25 2.84 -53.9 0 -45.39 5.67 -36.89 2.84 -31.21 -107.81 -164.55 -428.39 -175.89 -428.39 -434.07 -11.34 -487.98 11.34 -31.2 82.27 -31.21 79.44 -31.22 79.44 -28.37 73.76 -25.54 70.94 -25.53 68.09 -25.54 65.25 -22.7 62.42 -22.7 56.74 -19.85 56.73 -17.02 53.91 -19.87 48.22 -14.18 45.4 -14.18 45.39 -14.19 39.72 -11.34 36.88 -22.7 -2.84 -28.37 -5.67 -34.05 0 -39.72 -2.84 -25.53 2.84 -31.22 0 -36.88 5.67 -42.55 2.84 1131.97 -2519.29 70.93 0zm278.03 1401.49l-400.02 -927.7 -394.36 927.7 434.08 0 360.3 0zm1265.33 -198.59l0 -1208.58 62.42 0 1778.83 1903.66 22.7 22.7 2.83 -34.05 2.84 -39.72 2.84 -42.55 0 -45.39 2.83 -53.91 0 -53.9 0 -62.4 0 -62.42 0 -1160.36 -11.34 -286.54 -5.68 -28.37 48.23 2.83 42.56 5.68 36.88 2.83 31.21 0 14.18 0 19.87 -2.83 25.54 -5.68 31.2 -2.83 -2.83 17.02 -2.84 22.7 -2.84 25.53 -2.83 17.02 -17.02 357.48 -34.04 859.62 -11.35 808.56 11.35 405.7 -51.07 0 -65.26 -73.77 -59.57 -68.09 -51.06 -59.57 -42.56 -53.9 -595.77 -655.36 -1004.33 -1072.4 -5.67 340.44 0 536.2 0 289.38 5.67 428.39 22.71 343.28 -22.71 -2.84 -28.37 -5.67 -34.05 0 -39.71 -2.84 -39.72 2.84 -34.05 0 -28.37 5.67 -22.7 2.84 5.67 -76.6 5.67 -70.93 2.84 -68.09 5.67 -62.43 2.84 -56.73 2.83 -51.06 0 -45.39 2.84 -42.56 22.7 -842.61zm4706.67 -740.47l-70.93 -79.44 -79.44 -68.09 -85.11 -59.59 -96.45 -51.05 -48.23 -22.71 -51.07 -17.02 -51.06 -17.01 -53.9 -11.35 -51.07 -11.35 -53.9 -5.67 -110.65 -5.67 -85.11 2.83 -82.27 8.51 -79.44 14.19 -76.6 22.7 -73.77 25.54 -70.92 34.04 -68.1 36.88 -68.09 45.39 -53.9 42.56 -48.23 45.39 -45.39 51.07 -42.56 51.06 -36.88 56.74 -34.04 62.42 -31.22 62.42 -25.53 68.09 -22.7 70.93 -19.87 70.93 -17.02 73.76 -14.18 73.77 -11.35 73.76 -8.51 76.61 -5.66 76.6 0 79.44 2.83 121.99 14.18 116.32 19.87 107.81 28.37 104.98 36.89 93.62 42.55 90.78 53.9 85.11 59.59 76.6 73.76 76.6 79.43 65.26 82.28 56.74 90.78 45.39 93.62 36.88 96.46 25.54 104.98 14.18 107.81 5.67 62.4 0 59.59 -5.67 59.57 -8.51 56.74 -14.18 56.74 -17.02 53.9 -17.02 53.9 -25.53 51.07 -25.54 99.29 -62.42 90.78 -73.77 82.27 -82.27 70.93 -93.62 31.21 -51.06 31.22 -51.07 25.53 -51.06 25.54 -56.74 39.72 -113.49 28.37 -119.15 14.18 -79.44 11.34 -82.27 8.51 -82.28 0 -85.11 -2.83 -121.99 -8.51 -113.49 -14.18 -107.81 -22.7 -99.29 -28.37 -93.62 -39.72 -90.78 -48.23 -87.95 -62.42 -87.95 0 0zm-79.44 -329.1l82.28 45.4 73.76 51.06 70.93 51.06 62.42 53.91 59.57 59.57 53.91 59.57 51.06 65.26 42.55 65.26 39.72 70.92 34.05 73.77 28.37 76.6 22.7 79.44 19.87 82.27 11.35 85.11 8.5 87.95 2.84 90.78 -2.84 99.31 -8.5 93.62 -14.19 93.62 -19.85 87.94 -25.54 87.95 -28.38 82.28 -36.88 82.27 -39.72 79.44 -45.39 73.76 -51.06 70.93 -53.9 65.26 -59.59 62.42 -62.42 56.73 -68.09 51.07 -73.76 48.23 -76.6 45.39 -79.45 36.88 -82.27 34.05 -85.11 28.37 -87.95 25.54 -90.78 17.02 -93.62 14.18 -96.46 5.67 -99.29 2.84 -102.13 -2.84 -102.13 -8.51 -96.45 -14.18 -96.46 -19.85 -90.78 -22.71 -85.12 -31.2 -85.1 -36.89 -79.44 -42.55 -76.6 -48.23 -73.77 -53.9 -68.09 -59.57 -62.42 -65.26 -59.57 -70.93 -56.74 -76.6 -51.07 -85.11 -45.39 -87.95 -8.51 -25.54 -8.51 -25.54 -11.34 -31.2 -8.51 -34.05 -11.34 -36.89 -8.51 -42.55 -11.35 -45.39 -11.35 -48.23 -11.34 -136.17 -5.67 -136.18 2.83 -70.93 5.68 -73.76 5.67 -68.1 11.34 -68.09 14.19 -65.25 19.85 -65.26 19.85 -62.42 22.71 -59.59 28.37 -59.57 28.37 -56.73 34.05 -53.9 36.88 -53.91 39.72 -51.06 42.55 -51.07 45.39 -48.22 51.07 -45.39 99.31 -82.28 104.96 -70.93 107.81 -62.42 113.49 -48.23 119.15 -39.72 122 -25.53 127.66 -17.02 130.5 -5.67 104.98 2.83 99.29 5.68 93.62 11.34 90.79 17.02 87.94 22.7 82.28 25.54 79.43 31.21 73.77 34.04 0 0z"/>
  <polygon class="fil0" points="11003,3408.35 10926.4,3328.92 10838.45,3255.15 10742,3192.74 10639.86,3141.67 10585.96,3118.98 10532.05,3099.11 10475.31,3084.93 10418.57,3070.75 10364.67,3059.39 10305.08,3053.72 10248.34,3048.04 10188.77,3048.04 10078.13,3053.72 9970.31,3067.91 9865.35,3096.28 9760.37,3136 9661.08,3184.22 9570.29,3240.97 9485.18,3309.05 9408.57,3385.66 9346.17,3465.09 9292.27,3550.21 9246.86,3641 9209.99,3740.29 9181.62,3842.41 9161.76,3953.06 9147.57,4066.55 9144.74,4188.55 9150.41,4310.54 9164.59,4429.69 9187.29,4546.01 9221.33,4662.32 9263.89,4775.81 9314.95,4877.95 9374.54,4968.73 9442.62,5053.84 9516.39,5121.94 9598.66,5181.51 9686.61,5232.57 9780.23,5275.13 9882.37,5306.34 9990.18,5329.04 10106.49,5343.22 10228.48,5348.89 10313.59,5346.06 10393.03,5340.38 10472.47,5331.88 10546.24,5317.68 10617.16,5303.5 10682.41,5280.8 10744.83,5258.11 10804.4,5229.74 10804.4,4838.23 10804.4,4642.47 10804.4,4588.57 10804.4,4537.5 10804.4,4492.11 10801.57,4449.55 10801.57,4409.83 10798.73,4375.78 10795.9,4341.74 10793.06,4313.37 10827.1,4316.21 10855.48,4319.05 10881.01,4319.05 10906.54,4321.88 10926.4,4321.88 10943.43,4324.72 10957.61,4324.72 10968.95,4324.72 11022.86,4321.88 11068.25,4319.05 11102.3,4313.37 11127.83,4302.03 11127.83,4409.83 11116.48,4770.14 11116.48,5201.36 11116.48,5323.37 10994.49,5363.08 10875.33,5397.12 10753.34,5425.5 10628.51,5448.18 10506.51,5465.21 10381.69,5479.4 10256.85,5487.9 10132.03,5487.9 10038.41,5487.9 9941.94,5479.4 9851.15,5468.05 9760.37,5448.18 9672.43,5425.5 9587.32,5399.96 9502.21,5368.76 9422.77,5329.04 9349,5292.15 9278.07,5249.6 9209.99,5201.36 9147.57,5144.62 9085.16,5082.22 9028.41,5014.12 8974.51,4937.52 8923.45,4855.25 8892.24,4792.84 8866.7,4724.75 8844.01,4650.98 8826.98,4571.54 8812.8,4489.26 8801.46,4401.32 8795.77,4310.54 8792.94,4211.23 8795.77,4111.94 8804.29,4015.49 8818.47,3921.86 8841.17,3831.07 8866.7,3745.96 8897.91,3663.69 8934.79,3584.25 8977.35,3510.48 9025.58,3439.57 9076.64,3374.31 9133.39,3311.9 9192.96,3255.15 9258.22,3201.25 9326.3,3153.03 9400.07,3110.47 9479.5,3070.75 9558.95,3036.7 9644.05,3005.49 9732,2979.97 9819.95,2960.1 9913.58,2943.08 10007.2,2931.73 10106.49,2926.05 10205.8,2923.22 10327.79,2926.05 10444.11,2931.73 10557.58,2945.92 10662.55,2962.94 10764.68,2985.64 10869.66,3016.84 10974.64,3053.72 11082.44,3099.11 11093.78,3104.78 11107.97,3113.3 11122.16,3121.81 11127.83,3127.49 11116.48,3161.53 11105.14,3195.58 11090.95,3235.3 11079.6,3280.69 11068.25,3320.41 11059.73,3357.29 11048.39,3385.66 11042.72,3408.35 "/>
  <path class="fil0" d="M12047.67 4097.76l14.18 0 19.85 2.83 22.71 0 25.53 0 28.38 2.84 22.7 0 19.85 0 17.02 0 150.37 -5.67 147.53 -14.18 99.29 -28.38 90.79 -39.71 39.71 -25.54 39.72 -25.54 34.05 -31.21 34.05 -31.21 28.37 -34.05 25.54 -36.88 22.7 -39.71 19.85 -42.56 11.35 -42.56 11.34 -45.39 5.67 -48.23 2.84 -51.06 -2.84 -48.23 -5.67 -48.23 -8.51 -42.55 -14.18 -42.56 -17.02 -39.72 -19.85 -34.05 -22.7 -34.04 -28.37 -31.21 -53.91 -48.23 -65.25 -39.71 -73.77 -28.38 -85.11 -19.87 -19.85 -2.83 -19.87 0 -22.7 -2.84 -28.37 0 -28.37 0 -34.05 0 -34.05 0 -39.72 0 -48.22 0 -45.4 0 -42.55 0 -39.72 0 -34.05 0 -34.04 2.84 -28.38 0 -25.53 2.83 -11.35 992.97zm-28.37 -1129.14l479.46 -11.35 127.66 2.84 119.16 11.35 107.82 17.02 96.45 22.68 45.39 14.19 42.56 19.85 39.72 22.7 36.88 25.54 34.05 31.21 28.37 34.04 28.37 39.73 22.7 42.55 31.22 65.25 22.68 68.1 14.19 70.92 5.67 70.94 -2.84 73.76 -11.34 68.09 -17.02 62.42 -22.7 59.59 -31.21 56.74 -34.05 53.9 -45.39 48.23 -48.23 42.55 -56.74 42.56 -56.73 36.88 -62.42 34.05 -62.42 28.37 -68.1 25.53 -70.92 22.71 -73.77 19.85 -76.6 14.18 746.14 944.74 175.9 204.27 59.57 79.44 -19.87 -2.84 -25.53 -2.84 -28.37 -2.83 -34.05 -2.84 -31.21 -2.84 -28.38 -2.83 -25.53 0 -19.87 0 -17.01 0 -22.71 0 -28.37 2.83 -31.21 2.84 -31.21 2.84 -28.38 2.83 -22.68 2.84 -22.71 2.84 -14.17 -19.87 -19.87 -28.38 -25.54 -36.88 -34.05 -45.39 -65.25 -93.62 -59.57 -82.27 -431.24 -553.22 -289.38 -337.61 -133.34 0 0 286.54 0 158.88 11.35 751.82 -48.23 -5.68 -45.39 -2.83 -36.89 -2.84 -34.04 0 -34.05 0 -39.71 2.84 -48.23 2.83 -53.9 5.68 2.83 -99.31 5.67 -104.96 5.68 -107.81 2.83 -107.82 17.02 -1265.32 -22.7 -700.76 0 -90.78 283.71 11.35z"/>
  <polygon class="fil0" points="13881.7,4015.49 13881.7,3623.97 13870.35,3059.39 13858.99,2962.94 13884.53,2965.77 13915.74,2968.61 13995.18,2977.12 14026.39,2979.97 14051.92,2979.97 14071.78,2979.97 14100.14,2977.12 14159.73,2968.61 14188.09,2965.77 14210.79,2962.94 14207.96,2979.97 14205.12,2999.82 14205.12,3025.36 14205.12,3053.72 14193.78,3297.7 14176.75,4066.55 14176.75,4092.07 14173.91,4126.12 14173.91,4163.01 14173.91,4208.4 14171.07,4253.79 14171.07,4293.51 14171.07,4327.56 14171.07,4353.09 14171.07,4458.06 14176.75,4557.36 14185.26,4645.3 14199.45,4727.58 14213.63,4798.51 14233.5,4866.59 14259.02,4929.01 14287.4,4988.58 14324.28,5042.49 14364,5090.72 14406.55,5133.28 14457.61,5173 14511.52,5207.05 14565.43,5238.24 14627.84,5263.78 14690.25,5283.63 14755.5,5300.66 14826.43,5312.01 14897.36,5317.68 14973.96,5320.52 15025.03,5317.68 15081.77,5312.01 15141.35,5300.66 15203.76,5286.49 15266.18,5269.46 15320.08,5249.6 15368.31,5226.9 15408.03,5201.36 15487.47,5138.96 15524.35,5104.91 15558.39,5068.02 15586.75,5028.31 15615.13,4985.75 15640.67,4943.19 15660.52,4894.96 15688.89,4821.2 15711.6,4744.6 15725.78,4659.49 15737.13,4571.54 15739.96,4526.15 15742.79,4475.09 15745.63,4421.19 15748.47,4364.44 15751.3,4302.03 15754.15,4239.6 15756.99,4171.53 15759.82,4097.76 15759.82,4058.04 15759.82,4012.65 15759.82,3955.9 15759.82,3890.66 15762.66,3825.4 15762.66,3768.66 15762.66,3720.42 15762.66,3680.72 15762.66,3646.67 15762.66,3609.79 15762.66,3564.39 15759.82,3519 15759.82,3467.93 15756.99,3414.03 15756.99,3354.45 15754.15,3292.04 15742.79,2962.94 15768.33,2962.94 15799.54,2965.77 15842.1,2968.61 15887.49,2974.28 15921.54,2974.28 15952.74,2971.45 15975.44,2968.61 15995.29,2962.94 15995.29,3005.49 15992.45,3056.55 15986.79,3116.14 15981.11,3184.22 15978.28,3252.31 15972.6,3311.9 15969.77,3362.96 15966.93,3405.52 15932.88,4404.16 15930.05,4477.92 15924.37,4543.18 15918.7,4605.59 15913.02,4662.32 15904.51,4716.24 15893.16,4764.46 15884.66,4807.02 15870.46,4843.9 15853.44,4900.64 15833.58,4954.54 15810.89,5005.61 15785.35,5051 15759.82,5093.56 15731.45,5133.28 15700.24,5167.33 15669.03,5201.36 15595.27,5266.62 15513,5323.37 15427.89,5374.43 15334.26,5414.15 15234.97,5445.35 15129.99,5468.05 15019.36,5479.4 14900.2,5485.07 14812.25,5482.23 14724.29,5476.56 14642.02,5465.21 14562.59,5451.03 14485.99,5431.17 14415.06,5408.48 14344.13,5380.11 14278.89,5348.89 14244.84,5331.88 14205.12,5303.5 14162.56,5272.29 14114.34,5229.74 14077.45,5195.69 14043.41,5158.81 14015.03,5119.1 13986.67,5076.53 13963.97,5033.98 13944.12,4988.58 13927.09,4940.36 13912.9,4892.13 13893.04,4787.16 13876.02,4673.68 13867.51,4548.85 13864.68,4415.5 "/>
  <path class="fil0" d="M16871.26 4574.38l0 158.88 11.35 626.98 0 79.43 -48.23 -5.66 -45.4 -2.84 -36.88 -2.84 -34.04 0 -17.02 0 -19.85 0 -22.71 0 -28.37 2.84 -28.38 0 -25.53 0 -19.87 2.84 -19.85 0 2.84 -17.02 2.83 -19.87 0 -25.53 0 -28.38 34.05 -700.75 -17.02 -1265.32 -17.02 -414.21 42.56 2.83 51.06 2.84 59.57 0 68.1 0 439.74 -5.67 119.16 2.83 107.81 2.84 96.46 5.67 87.95 8.51 82.27 17.02 79.44 22.7 73.76 31.21 73.77 39.72 34.04 25.54 31.21 25.54 25.54 31.2 25.54 34.05 22.7 36.88 19.85 39.72 17.02 42.56 14.19 48.23 8.51 42.55 8.51 42.55 5.66 48.23 0 51.07 0 56.74 -5.66 53.9 -8.51 51.06 -11.35 51.07 -14.18 48.22 -19.87 45.39 -22.7 42.56 -25.53 42.55 -53.91 70.94 -65.25 62.42 -70.93 53.9 -82.28 45.39 -36.88 17.01 -42.55 17.02 -45.39 17.02 -48.23 14.18 -51.07 14.18 -53.9 14.19 -56.74 11.34 -59.57 11.35 -42.55 5.67 -48.23 2.84 -59.59 2.83 -68.09 0 -25.54 0 -31.2 0 -36.89 0 -42.56 -2.83 -42.55 0 -36.88 0 -31.21 -2.84 -25.54 0 0 266.69zm0 -1168.86l0 760.32 28.37 5.68 39.72 5.67 48.23 2.84 59.57 0 34.05 0 42.56 -2.84 51.06 -5.67 56.74 -5.68 73.76 -8.51 68.1 -14.18 62.4 -17.02 56.74 -19.85 51.06 -25.54 45.4 -31.21 42.56 -31.21 36.88 -36.88 28.37 -36.89 25.54 -42.55 22.7 -48.23 19.85 -53.89 17.02 -59.59 11.34 -53.9 8.51 -53.9 2.84 -51.07 -2.84 -51.06 -5.67 -48.23 -8.51 -45.39 -14.18 -42.55 -17.02 -42.56 -19.85 -39.72 -22.7 -36.88 -28.38 -34.05 -25.53 -25.54 -25.54 -22.7 -31.21 -17.02 -34.05 -17.02 -36.88 -14.17 -42.56 -11.35 -45.39 -11.35 -48.23 -5.67 -102.12 -14.18 -99.31 -2.84 -68.09 0 -73.76 2.84 -85.11 2.83 -90.79 5.68 0 85.11 -5.67 209.94z"/>
  <path class="fil0" d="M20785.68 3400.43l-70.94 -79.45 -79.43 -70.92 -87.95 -59.59 -96.45 -51.06 -48.23 -19.85 -51.07 -19.87 -51.06 -14.18 -53.9 -14.19 -51.07 -8.5 -53.9 -8.51 -107.81 -5.67 -85.11 2.83 -82.27 11.35 -79.44 14.18 -76.6 19.85 -73.77 28.38 -73.76 31.21 -68.1 39.72 -65.26 45.39 -53.9 42.55 -51.06 45.39 -45.39 48.23 -39.72 53.9 -39.72 56.74 -34.04 59.59 -31.22 65.25 -25.53 68.09 -22.7 68.1 -19.87 70.92 -17.02 73.77 -14.18 73.76 -11.35 73.77 -8.5 76.61 -2.84 79.43 -2.83 76.6 5.67 122 11.35 116.31 19.85 110.65 28.37 102.13 36.89 96.46 45.39 87.94 51.06 85.12 62.42 76.6 73.77 76.6 76.59 68.09 85.12 56.74 87.94 45.39 93.62 36.89 99.31 25.53 102.13 14.19 107.81 5.67 62.42 -2.84 59.57 -5.67 59.57 -8.51 56.74 -11.35 56.74 -17.01 53.9 -19.87 53.9 -22.7 53.9 -28.37 99.31 -62.42 87.94 -73.77 82.27 -82.28 70.94 -93.61 62.42 -99.31 51.06 -107.79 39.72 -116.33 28.37 -119.16 17.02 -79.43 8.51 -82.27 8.5 -82.28 0 -82.27 -2.83 -122 -8.51 -113.49 -14.18 -107.79 -19.87 -99.31 -31.2 -93.62 -39.72 -93.61 -48.23 -87.96 -59.57 -85.1 0 0zm-82.28 -329.11l82.28 45.4 73.76 48.23 70.93 51.06 65.26 53.9 59.57 59.57 53.9 59.59 48.23 65.26 45.39 65.25 36.88 70.93 34.05 73.77 28.37 76.6 22.7 79.43 19.87 82.28 11.35 85.11 8.51 87.95 2.83 90.78 -2.83 99.31 -8.51 93.62 -14.19 93.61 -19.85 90.79 -22.7 85.11 -31.22 85.11 -34.04 79.44 -42.55 79.43 -45.4 73.77 -51.06 70.93 -53.9 65.25 -59.59 62.43 -62.42 56.73 -68.09 51.07 -70.93 48.23 -76.6 45.39 -79.44 39.72 -85.11 34.04 -85.11 28.38 -87.94 22.68 -90.79 19.87 -93.62 11.35 -93.62 8.5 -99.29 2.84 -104.98 -2.84 -102.13 -8.5 -96.45 -14.19 -93.62 -19.85 -90.78 -25.54 -87.95 -31.2 -82.28 -36.89 -82.27 -42.56 -76.6 -48.22 -70.93 -53.9 -68.1 -59.59 -65.25 -65.25 -59.57 -70.93 -53.9 -76.6 -51.07 -85.12 -48.23 -87.94 -8.51 -22.71 -8.51 -28.37 -8.51 -31.21 -11.34 -34.05 -8.51 -36.88 -11.34 -42.55 -8.51 -45.39 -11.35 -48.23 -14.18 -136.17 -2.84 -136.18 0 -70.93 5.68 -70.93 8.51 -70.93 11.34 -68.09 14.18 -65.26 17.02 -65.25 19.85 -59.59 25.54 -62.42 25.54 -59.57 31.21 -56.73 34.05 -53.91 36.88 -53.9 39.72 -51.06 42.56 -51.07 45.39 -48.22 48.22 -45.4 102.13 -82.27 102.13 -70.93 110.65 -62.42 113.48 -48.23 116.32 -36.88 124.83 -28.38 124.83 -17.02 130.51 -5.66 104.96 2.83 99.29 8.51 93.62 11.34 93.62 17.02 85.12 19.87 82.27 25.54 79.43 31.2 73.77 36.88 0 0z"/>
  <polygon class="fil0" points="-0,3856.73 4.67,3653.5 18.68,3454.95 39.71,3261.06 70.07,3071.84 107.46,2887.3 156.51,2705.08 212.57,2527.56 277.98,2354.69 350.4,2186.49 432.15,2020.65 523.26,1859.46 623.7,1702.95 731.16,1551.11 847.96,1401.6 971.77,1256.77 1107.25,1116.62 1247.41,983.46 1392.24,857.32 1539.41,740.52 1691.25,633.06 1847.77,532.61 2008.94,443.84 2172.47,359.74 2340.66,287.33 2513.52,221.93 2691.06,165.86 2870.93,119.14 3055.47,79.43 3244.69,49.06 3436.24,28.04 3634.81,16.36 3833.36,11.68 3833.36,567.64 3662.83,569.99 3496.98,581.67 3333.46,600.35 3172.27,626.06 3015.76,658.75 2861.58,698.47 2712.08,745.18 2564.92,798.92 2420.09,861.99 2279.92,932.07 2144.44,1006.82 2011.29,1090.91 1880.47,1182.02 1754.32,1280.13 1630.52,1387.59 1511.38,1499.71 1396.92,1618.85 1289.47,1740.32 1191.35,1866.47 1097.91,1997.28 1013.82,2130.44 936.72,2270.59 866.64,2410.75 803.57,2557.92 749.85,2707.42 700.8,2861.6 661.09,3020.45 626.05,3181.63 600.34,3347.49 581.66,3515.68 572.31,3690.89 567.63,3868.41 569.98,4017.92 579.32,4165.09 593.34,4312.25 614.37,4454.75 640.06,4592.58 672.76,4730.4 710.13,4865.88 752.18,4996.7 803.57,5125.18 857.31,5251.32 918.04,5375.14 985.78,5496.61 1058.19,5613.4 1135.29,5730.2 1219.39,5842.33 1308.15,5952.13 1403.92,6059.58 1502.03,6160.03 1604.82,6258.14 1709.95,6349.25 1819.74,6435.68 1931.86,6519.77 2048.66,6596.86 2170.13,6671.61 2293.94,6739.35 2422.42,6802.42 2553.24,6863.16 2688.72,6916.89 2826.54,6965.95 2969.04,7010.33 3116.22,7052.38 3265.72,7087.42 3265.72,1945.89 3833.36,1945.89 3833.36,7736.82 3627.79,7711.13 3426.91,7680.76 3230.67,7643.38 3039.12,7598.99 2852.25,7547.61 2672.38,7491.55 2494.84,7428.47 2321.98,7360.73 2156.12,7283.64 1992.6,7201.89 1836.08,7113.11 1684.24,7019.67 1537.08,6919.23 1394.59,6811.77 1256.76,6697.31 1123.61,6578.17 988.12,6442.69 859.64,6302.53 742.84,6157.69 633.05,6008.18 530.26,5854.01 439.16,5695.16 355.07,5531.65 280.32,5363.46 214.9,5192.92 158.85,5015.39 109.79,4833.18 70.07,4646.3 39.71,4457.08 18.68,4260.86 4.67,4059.96 -0,3856.73 "/>
  <polygon class="fil0" points="7869.96,3880.09 7865.3,4083.33 7853.62,4279.55 7832.59,4473.44 7802.22,4665 7762.51,4849.54 7715.79,5031.74 7659.73,5209.28 7594.32,5382.14 7519.57,5550.33 7437.8,5716.19 7346.71,5877.37 7248.59,6033.88 7141.13,6185.72 7024.34,6335.23 6898.19,6480.05 6765.04,6620.22 6624.87,6753.37 6480.04,6879.52 6330.54,6996.32 6178.71,7103.78 6022.2,7201.89 5863.34,7292.98 5697.48,7374.75 5529.29,7449.5 5356.43,7514.91 5181.23,7570.98 4999.02,7617.69 4814.48,7657.41 4627.6,7687.77 4433.71,7708.8 4237.49,7720.48 4036.59,7725.14 4036.59,7169.18 4207.12,7166.85 4375.31,7155.17 4538.83,7136.47 4700.02,7110.78 4856.54,7078.07 5008.37,7038.36 5160.21,6991.64 5307.38,6935.57 5449.88,6874.85 5590.04,6804.77 5727.86,6727.67 5861.01,6645.91 5989.49,6554.81 6115.63,6456.7 6239.43,6349.25 6358.57,6237.11 6473.04,6117.98 6580.5,5996.5 6680.94,5870.37 6772.05,5739.55 6856.15,5604.06 6933.23,5466.23 7003.31,5323.74 7066.39,5178.91 7122.45,5029.41 7171.5,4875.23 7211.21,4716.38 7243.92,4555.19 7269.61,4389.35 7288.31,4218.81 7299.99,4045.95 7302.32,3868.41 7299.99,3718.91 7290.64,3569.41 7276.63,3424.57 7257.93,3282.07 7229.9,3141.92 7199.53,3006.43 7162.16,2870.94 7117.78,2740.12 7068.72,2611.65 7012.66,2485.5 6951.92,2361.7 6886.51,2240.23 6814.09,2121.09 6734.67,2006.62 6650.58,1894.5 6561.82,1784.71 6466.03,1677.25 6367.92,1576.8 6267.47,1478.69 6162.35,1387.59 6052.56,1298.81 5938.1,1217.06 5821.3,1139.97 5702.16,1065.22 5578.35,997.47 5449.88,934.4 5319.06,873.67 5183.57,819.94 5043.41,770.89 4900.91,724.16 4753.75,684.45 4604.24,649.42 4604.24,5790.94 4036.59,5790.94 4036.59,0 4242.16,25.69 4443.06,56.07 4639.28,93.44 4830.83,137.83 5017.72,186.88 5199.92,245.29 5377.46,308.36 5547.99,376.1 5716.18,453.19 5877.36,534.95 6033.87,621.38 6188.05,717.15 6335.22,817.6 6477.71,925.07 6615.54,1039.52 6746.36,1158.66 6884.17,1294.15 7010.32,1434.31 7129.45,1579.14 7239.25,1728.64 7339.69,1882.82 7430.8,2041.66 7514.9,2205.19 7589.65,2371.04 7655.05,2543.9 7713.45,2721.44 7760.17,2903.65 7799.88,3088.19 7830.26,3279.74 7853.62,3475.96 7865.3,3676.86 7869.96,3880.09 "/>
  <polygon class="fil0" points="26044.21,2926.31 25950.59,3079.51 25851.29,3244.06 25800.22,3323.5 25757.67,3391.58 25723.63,3451.16 25695.25,3502.22 25434.24,3958.99 25405.87,3956.15 25383.18,3953.32 25340.62,3953.32 25298.07,3953.32 25246.99,3958.99 25303.74,3808.62 25354.81,3663.94 25403.03,3524.93 25445.59,3391.58 25488.14,3266.75 25525.03,3144.76 25561.91,3031.28 25593.12,2926.31 25817.24,2929.14 26044.21,2926.31 "/>
 </g>
</svg>
